<svg xmlns="http://www.w3.org/2000/svg" viewBox="0 0 1024 1024" width="1024" height="1024">
  <defs>
    <filter id="outerGlow" x="-50%" y="-50%" width="200%" height="200%">
      <feGaussianBlur stdDeviation="20" result="blur"/>
      <feMerge><feMergeNode in="blur"/><feMergeNode in="SourceGraphic"/></feMerge>
    </filter>
    <filter id="innerGlow" x="-30%" y="-30%" width="160%" height="160%">
      <feGaussianBlur stdDeviation="6" result="blur"/>
      <feMerge><feMergeNode in="blur"/><feMergeNode in="SourceGraphic"/></feMerge>
    </filter>
  </defs>
  <rect width="1024" height="1024" rx="220" fill="#080808"/>
  <ellipse cx="512" cy="490" rx="280" ry="240" fill="#6d28d9" opacity="0.08"/>
  <path d="M 302 455 A 210 210 0 0 0 722 455 L 722 672 Q 652 752 582 672 Q 512 752 442 672 Q 372 752 302 672 Z" fill="white"/>
  <circle cx="414" cy="406" r="50" fill="#080808"/>
  <circle cx="610" cy="406" r="50" fill="#080808"/>
  <circle cx="430" cy="390" r="16" fill="white"/>
  <circle cx="626" cy="390" r="16" fill="white"/>
  <path d="M 30,562 L 318,562 L 338,542 L 356,562 L 386,562 L 404,580 L 432,248 L 458,598 L 480,546 L 508,562 C 528,562 530,496 552,562 L 994,562"
        fill="none" stroke="#7c3aed" stroke-width="22" stroke-linecap="round" stroke-linejoin="round" filter="url(#outerGlow)" opacity="0.6"/>
  <path d="M 30,562 L 318,562 L 338,542 L 356,562 L 386,562 L 404,580 L 432,248 L 458,598 L 480,546 L 508,562 C 528,562 530,496 552,562 L 994,562"
        fill="none" stroke="#a855f7" stroke-width="13" stroke-linecap="round" stroke-linejoin="round" filter="url(#innerGlow)"/>
  <path d="M 30,562 L 318,562 L 338,542 L 356,562 L 386,562 L 404,580 L 432,248 L 458,598 L 480,546 L 508,562 C 528,562 530,496 552,562 L 994,562"
        fill="none" stroke="#f3e8ff" stroke-width="4" stroke-linecap="round" stroke-linejoin="round" opacity="0.85"/>
</svg>
